<svg id="Layer_1" height="512" viewBox="0 0 512 512" width="512" xmlns="http://www.w3.org/2000/svg" data-name="Layer 1"><path d="m427.04 218.39-.48.23-126.42-80.65v-.4h-31.9v112.64h174.12z" fill="#deedfd"/><path d="m496.82 275.83.55-.16a36.233 36.233 0 0 0 -34.59-25.46h-194.54v111.24h230.76z" fill="#fb6771"/><path d="m239.9 137.57h28.34v112.64h-28.34z" fill="#afc6d8"/><path d="m239.9 250.21h28.34v111.24h-28.34z" fill="#c1495b"/><path d="m13.52 250.21h-.52v111.24h178.79 48.11v-111.24z" fill="#fb6771"/><path d="m239.9 137.57v112.64h-226.9v-99.56a13.079 13.079 0 0 1 13.08-13.08z" fill="#deedfd"/><path d="m101.91 190.27v-19.06h-16.68v19.06h-16.68v16.68h16.68v15.48h16.68v-15.48h17.86v-16.68z" fill="#e75163"/><path d="m447.9 361.45c.02.39.02.78.02 1.17a49.735 49.735 0 0 1 -99.47 0c0-.39 0-.78.02-1.16a49.729 49.729 0 0 1 99.43-.01z" fill="#6d7486"/><path d="m47.68 361.45a49.729 49.729 0 0 1 99.43 0c.02.39.02.78.02 1.17a49.735 49.735 0 0 1 -99.47 0c0-.39 0-.78.02-1.17z" fill="#6d7486"/><path d="m398.18 341.36a21.26 21.26 0 1 1 -21.26 21.26 21.264 21.264 0 0 1 21.26-21.26z" fill="#b0b5ca"/><path d="m97.4 341.36a21.26 21.26 0 1 1 -21.27 21.26 21.262 21.262 0 0 1 21.27-21.26z" fill="#b0b5ca"/><path d="m499 286.43v20.28h-37.03v-30.88h34.85l.55-.16a36.075 36.075 0 0 1 1.63 10.76z" fill="#eadf53"/><path d="m398.76 159.66a39.022 39.022 0 0 0 -35.16-22.09h-63.46v81.05h126.42l.48-.23z" fill="#7ce5e9"/><path d="m346.57 116.61 2.38 20.96h-42.77l2.38-20.96a19.129 19.129 0 0 1 38.01 0z" fill="#e75163"/><path d="m13.52 250.21h-.52v111.24h30v-111.24z" fill="#dd5b68"/><path d="m43 250.21v-99.56a13.079 13.079 0 0 1 13.08-13.08h-30a13.079 13.079 0 0 0 -13.08 13.08v99.56z" fill="#bfd1e2"/><g fill="#f4f8fc"><path d="m367.492 282.56h-77.492a6 6 0 0 1 0-12h77.492a6 6 0 0 1 0 12z"/><path d="m416.229 283.166h-26.614a6 6 0 0 1 0-12h26.614a6 6 0 0 1 0 12z"/><path d="m444.229 283.166h-5.614a6 6 0 0 1 0-12h5.614a6 6 0 0 1 0 12z"/></g></svg>