<svg id="Layer_1" enable-background="new 0 0 512 512" height="512" viewBox="0 0 512 512" width="512" xmlns="http://www.w3.org/2000/svg"><g><g><g><g id="XMLID_1660_"><g id="XMLID_1661_"><g id="XMLID_1662_"><g id="XMLID_1663_"><g id="XMLID_1664_"><g id="XMLID_1665_"><g id="XMLID_1666_"><g id="XMLID_1667_"><g id="XMLID_1668_"><g id="XMLID_1669_"><g id="XMLID_1670_"><g id="XMLID_1671_"><g id="XMLID_1672_"><g id="XMLID_1673_"><g id="XMLID_1674_"><ellipse cx="256" cy="256" fill="#ffc136" rx="256" ry="256" transform="matrix(.707 -.707 .707 .707 -106.039 256)"/></g></g></g></g></g></g></g></g></g></g></g></g></g></g></g></g></g><path d="m512 255.589c-.055-34.229-6.842-66.868-19.079-96.693l-84.472-84.472-304.898 363.152 55.346 55.346c30.069 12.337 62.995 19.133 97.514 19.077 141.385-.226 255.816-115.026 255.589-256.41z" fill="#f4a300"/><g><path d="m103.551 74.424h304.898v363.153h-304.898z" fill="#f4f2ef"/><path d="m256 74.42h152.45v363.16h-152.45z" fill="#e5e1dc"/><path d="m138.883 337.618h234.235v56.382h-234.235z" fill="#7343dd"/><path d="m256 337.618h117.118v56.382h-117.118z" fill="#552cb7"/><g><path d="m138.883 113.191h86.322v193.296h-86.322z" fill="#b7b4b2"/><path d="m256 113.191h117.118v76.731h-117.118z" fill="#e54c00"/><path d="m256 224.84h117.118v81.648h-117.118z" fill="#2ad1b5"/></g></g></g></svg>