<svg xmlns="http://www.w3.org/2000/svg" height="512pt" version="1.1" viewBox="0 0 512 512" width="512pt">
<g id="surface1">
<path d="M 512 256 C 512 397.386719 397.386719 512 256 512 C 114.613281 512 0 397.386719 0 256 C 0 114.613281 114.613281 0 256 0 C 397.386719 0 512 114.613281 512 256 Z M 512 256 " style=" stroke:none;fill-rule:nonzero;fill:rgb(100%,74.509804%,66.666667%);fill-opacity:1;" />
<path d="M 507.175781 305.636719 L 256 54.460938 L 166.390625 420.296875 L 258.070312 511.972656 C 381.546875 510.992188 484.1875 422.605469 507.175781 305.636719 Z M 507.175781 305.636719 " style=" stroke:none;fill-rule:nonzero;fill:rgb(98.039216%,65.098039%,55.686275%);fill-opacity:1;" />
<path d="M 111.539062 306.984375 C 111.539062 227.199219 256 54.460938 256 54.460938 C 256 54.460938 400.460938 227.199219 400.460938 306.984375 C 400.460938 386.769531 335.785156 451.445312 256 451.445312 C 176.214844 451.445312 111.539062 386.765625 111.539062 306.984375 Z M 111.539062 306.984375 " style=" stroke:none;fill-rule:nonzero;fill:rgb(100%,26.27451%,18.039216%);fill-opacity:1;" />
<path d="M 256 451.445312 C 335.785156 451.445312 400.460938 386.769531 400.460938 306.984375 C 400.460938 227.199219 256 54.460938 256 54.460938 Z M 256 451.445312 " style=" stroke:none;fill-rule:nonzero;fill:rgb(97.647059%,15.686275%,7.843137%);fill-opacity:1;" />
<path d="M 348.296875 271.828125 L 290.730469 271.828125 L 290.730469 214.261719 L 221.269531 214.261719 L 221.269531 271.828125 L 163.703125 271.828125 L 163.703125 341.289062 L 221.269531 341.289062 L 221.269531 398.855469 L 290.730469 398.855469 L 290.730469 341.289062 L 348.296875 341.289062 Z M 348.296875 271.828125 " style=" stroke:none;fill-rule:nonzero;fill:rgb(94.117647%,94.117647%,94.117647%);fill-opacity:1;" />
<path d="M 290.730469 271.828125 L 290.730469 214.261719 L 256 214.261719 L 256 398.855469 L 290.730469 398.855469 L 290.730469 341.289062 L 348.296875 341.289062 L 348.296875 271.828125 Z M 290.730469 271.828125 " style=" stroke:none;fill-rule:nonzero;fill:rgb(87.843137%,87.843137%,87.843137%);fill-opacity:1;" />
</g>
</svg>