<svg id="Capa_1" enable-background="new 0 0 512 512" height="512" viewBox="0 0 512 512" width="512" xmlns="http://www.w3.org/2000/svg"><g><path d="m463.372 456.212v-400.424c0-26.75-18.201-49.242-42.891-55.788h-363.194c-31.639 0-57.287 25.648-57.287 57.287v397.426c0 31.639 25.648 57.287 57.287 57.287h363.193c24.691-6.546 42.892-29.038 42.892-55.788z" fill="#f9f6f9"/><path d="m454.713 0h-55.933c31.639 0 57.287 25.648 57.287 57.287v397.426c0 31.639-25.648 57.287-57.287 57.287h55.933c31.639 0 57.287-25.648 57.287-57.287v-397.426c0-31.639-25.648-57.287-57.287-57.287z" fill="#dddaec"/><path d="m459.737 476.395c2.346-6.283 3.635-13.081 3.635-20.183v-400.424c0-7.101-1.289-13.9-3.635-20.183-1.616-.374-3.296-.579-5.024-.579h-397.426c-12.275 0-22.261 9.986-22.261 22.261v397.426c0 12.275 9.986 22.261 22.261 22.261h397.426c1.728 0 3.408-.205 5.024-.579z" fill="#80b4fb"/><path d="m454.713 35.026h-3.132c2.889 6.844 4.487 14.366 4.487 22.261v397.426c0 7.895-1.598 15.417-4.487 22.261h3.132c12.275 0 22.261-9.986 22.261-22.261v-397.426c0-12.274-9.987-22.261-22.261-22.261z" fill="#61a2f9"/><path d="m345.026 237.976c-28.128-54.254-4.633-87.164 6.884-98.889 2.755-2.805 2.591-7.34-.389-9.904l-19.95-17.163c-5.71-4.913-12.993-7.614-20.526-7.614-10.861 1.257-22.012-.457-32.185-5.235l-10.988-5.16c-7.549-3.545-16.284-3.545-23.833 0l-10.988 5.16c-17.488 8.213-37.873 7.438-54.688-2.078l-11.19-6.333c-2.486-1.407-5.587-1.103-7.753.76l-43.779 37.663c-2.98 2.564-3.144 7.1-.389 9.904 11.517 11.725 35.012 44.635 6.884 98.889-75.957 146.506 84.677 151.451 126.025 181.57 2.783 2.027 6.174 2.859 9.453 2.487.555-.063 1.427-.381 2.452-.84 4.918-2.2 8.91-6.083 11.338-10.892 24.379-48.276 144.392-35.825 73.622-172.325z" fill="#f7f4f4"/><path d="m389.774 237.976c-28.146-54.287-4.604-87.204 6.905-98.91 2.748-2.795 2.562-7.326-.41-9.883l-43.779-37.663c-2.165-1.863-5.267-2.167-7.753-.76l-11.19 6.333c-7.033 3.98-14.693 6.409-22.503 7.313l28.801 24.777c2.972 2.557 3.159 7.087.41 9.883-11.51 11.706-35.051 44.623-6.905 98.91 76.014 146.616-68.079 121.386-77.35 184.142 2.772.018 5.547-.815 7.898-2.504 41.986-30.179 201.89-35.023 125.876-181.638z" fill="#dddaec"/><path d="m352.187 255.969c0-1.143-.027-2.279-.067-3.412-2.115-4.665-4.469-9.517-7.094-14.581-7.931-15.298-11.757-28.898-12.905-40.806-17.592-22.741-45.144-37.387-76.12-37.387-53.122 0-96.187 43.064-96.187 96.187s43.064 96.187 96.187 96.187 96.186-43.065 96.186-96.188z" fill="#80b4fb"/><path d="m349.877 276.986c1.508-6.765 2.309-13.797 2.309-21.017 0-28.441-12.347-53.995-31.97-71.605-.933 14.651 2.197 32.517 13.134 53.611 7.585 14.631 12.973 27.545 16.527 39.011z" fill="#61a2f9"/><path d="m259.412 200.589 11.681 31.437c.511 1.374 1.796 2.308 3.26 2.369l33.508 1.394c3.371.14 4.753 4.395 2.109 6.49l-26.289 20.824c-1.149.91-1.64 2.421-1.245 3.833l9.028 32.299c.908 3.249-2.711 5.879-5.52 4.011l-27.928-18.568c-1.221-.812-2.809-.812-4.03 0l-27.928 18.568c-2.81 1.868-6.429-.761-5.52-4.011l9.028-32.299c.395-1.412-.096-2.923-1.245-3.833l-26.289-20.824c-2.645-2.095-1.262-6.349 2.109-6.49l33.508-1.394c1.465-.061 2.75-.995 3.26-2.369l11.681-31.437c1.173-3.163 5.647-3.163 6.822 0z" fill="#f7f4f4"/></g></svg>