<svg id="Capa_1" enable-background="new 0 0 512 512" height="512" viewBox="0 0 512 512" width="512" xmlns="http://www.w3.org/2000/svg"><g><g><g><g><g><g><g><g><g><circle cx="256" cy="256" fill="#a3d4ff" r="256"/></g></g></g></g></g></g></g></g><path d="m512 256c0-9.335-.5-18.554-1.474-27.63l-147.047-147.047-213.271 351.38 77.782 77.782c9.2 1.001 18.545 1.515 28.01 1.515 141.385 0 256-114.615 256-256z" fill="#65b1fc"/><g><path d="m337.396 443.5h-162.792c-18.201 0-32.956-14.755-32.956-32.956v-309.088c0-18.201 14.755-32.956 32.956-32.956h162.793c18.201 0 32.956 14.755 32.956 32.956v309.087c0 18.202-14.755 32.957-32.957 32.957z" fill="#555a66"/></g><g><path d="m337.396 68.5h-81.435v375h81.435c18.201 0 32.957-14.755 32.957-32.957v-309.086c0-18.202-14.755-32.957-32.957-32.957z" fill="#333940"/></g><g><path d="m167.385 96.362h177.23v319.275h-177.23z" fill="#fff"/></g><g><path d="m255.962 96.362h88.654v319.275h-88.654z" fill="#e9edf5"/></g><g><g><g><path d="m315.344 163.276-12.21-17.593h-4.691c-3.706 7.237-11.238 12.19-19.927 12.19s-18.849-4.953-22.555-12.19c-3.706 7.237-13.502 12.19-22.191 12.19s-16.221-4.953-19.927-12.19h-4.691l-12.21 17.593s12.91 7.297 12.91 28.627-13.471 42.66-6.455 63.428 52.563 44.553 52.563 44.553 45.91-23.784 52.927-44.553c7.016-20.768-6.455-42.098-6.455-63.428s12.912-28.627 12.912-28.627z" fill="#ffde55"/></g><g><path d="m315.344 163.276-12.21-17.593h-4.691c-3.706 7.237-11.238 12.19-19.927 12.19s-18.849-4.953-22.555-12.19c-3.706 7.237-13.502 12.19-22.191 12.19s-16.221-4.953-19.927-12.19h-4.691l-12.21 17.593s12.91 7.297 12.91 28.627-13.471 42.66-6.455 63.428 52.563 44.553 52.563 44.553 45.91-23.784 52.927-44.553c7.016-20.768-6.455-42.098-6.455-63.428s12.912-28.627 12.912-28.627z" fill="#ffde55"/></g><g><path d="m255.962 307.861c-.485-.252-15.557-7.13-28.141-15.863-17.783-12.341-28.561-23.812-32.035-34.095-4.978-14.735-1.426-28.853 2.009-42.506 2.069-8.224 4.023-15.993 4.023-23.494 0-15.36-7.971-21.057-8.89-21.663l-8.108-4.158 5.523-7.388 14.607-21.048h13.809l2.239 4.374c2.469 4.821 7.363 7.816 12.773 7.816s10.305-2.995 12.773-7.816l2.239-4.374h14.721l2.239 4.374c2.469 4.821 7.363 7.816 12.773 7.816s10.305-2.995 12.773-7.816l2.239-4.374h13.809l19.842 28.591-7.821 4.003c-.922.607-8.89 6.305-8.89 21.663 0 7.501 1.954 15.269 4.023 23.494 3.435 13.653 6.987 27.771 2.009 42.506-3.474 10.283-14.253 21.754-32.036 34.095-12.582 8.733-28.017 15.611-28.502 15.863zm-48.375-145.827c4.759 5.379 10.303 14.866 10.303 29.868 0 9.492-2.292 18.604-4.509 27.415-3 11.923-5.833 23.185-2.369 33.44 1.321 3.908 6.45 12.487 25.972 26.034 7.642 5.303 14.758 9.588 18.978 11.952 16.729-9.254 41.278-26.042 45.313-37.987 3.464-10.255.631-21.517-2.369-33.44-2.217-8.812-4.509-17.923-4.509-27.415 0-15.003 5.544-24.489 10.303-29.868l-3.98-5.735c-5.66 6.062-13.625 9.61-22.203 9.61-8.664 0-16.885-3.62-22.555-9.793-5.67 6.174-13.527 9.793-22.191 9.793-8.578 0-16.543-3.548-22.203-9.61z" fill="#ffce00"/></g><g><path d="m255.962 307.861c-.485-.252-15.557-7.13-28.141-15.863-17.783-12.341-28.561-23.812-32.035-34.095-4.978-14.735-1.426-28.853 2.009-42.506 2.069-8.224 4.023-15.993 4.023-23.494 0-15.36-7.971-21.057-8.89-21.663l-8.108-4.158 5.523-7.388 14.607-21.048h13.809l2.239 4.374c2.469 4.821 7.363 7.816 12.773 7.816s10.305-2.995 12.773-7.816l2.239-4.374h14.721l2.239 4.374c2.469 4.821 7.363 7.816 12.773 7.816s10.305-2.995 12.773-7.816l2.239-4.374h13.809l19.842 28.591-7.821 4.003c-.922.607-8.89 6.305-8.89 21.663 0 7.501 1.954 15.269 4.023 23.494 3.435 13.653 6.987 27.771 2.009 42.506-3.474 10.283-14.253 21.754-32.036 34.095-12.582 8.733-28.017 15.611-28.502 15.863zm-48.375-145.827c4.759 5.379 10.303 14.866 10.303 29.868 0 9.492-2.292 18.604-4.509 27.415-3 11.923-5.833 23.185-2.369 33.44 1.321 3.908 6.45 12.487 25.972 26.034 7.642 5.303 14.758 9.588 18.978 11.952 16.729-9.254 41.278-26.042 45.313-37.987 3.464-10.255.631-21.517-2.369-33.44-2.217-8.812-4.509-17.923-4.509-27.415 0-15.003 5.544-24.489 10.303-29.868l-3.98-5.735c-5.66 6.062-13.625 9.61-22.203 9.61-8.664 0-16.885-3.62-22.555-9.793-5.67 6.174-13.527 9.793-22.191 9.793-8.578 0-16.543-3.548-22.203-9.61z" fill="#ffce00"/></g></g><g><g><path d="m255.962 185.695 10.117 20.131 22.216 3.228-16.076 15.67 3.795 22.127-20.052-10.447-19.689 10.447 3.795-22.127-16.076-15.67 22.216-3.228z" fill="#fa0"/></g></g><g><g><path d="m255.962 185.695 10.117 20.131 22.216 3.228-16.076 15.67 3.795 22.127-20.052-10.447-19.689 10.447 3.795-22.127-16.076-15.67 22.216-3.228z" fill="#fa0"/></g></g><g><path d="m315.344 163.276-12.21-17.593h-4.691c-3.706 7.237-11.238 12.19-19.927 12.19s-18.849-4.953-22.555-12.19v154.118c.101.053 0 .083 0 .083s45.91-23.784 52.927-44.553c7.016-20.768-6.455-42.098-6.455-63.428s12.911-28.627 12.911-28.627z" fill="#ffce00"/></g><g><path d="m319.36 170.24 7.821-4.003-19.842-28.591h-13.809l-2.24 4.374c-2.469 4.821-7.363 7.816-12.773 7.816s-10.305-2.995-12.773-7.816l-2.24-4.374h-7.542v18.633c.052-.055-.051-.107 0-.163 5.67 6.174 13.891 9.793 22.555 9.793 8.578 0 16.543-3.548 22.203-9.61l3.98 5.735c-4.759 5.379-10.303 14.866-10.303 29.868 0 9.492 2.292 18.604 4.509 27.416 3 11.923 5.833 23.185 2.369 33.44-4.036 11.944-28.584 28.733-45.313 37.987-.059-.033.061-.071 0-.104v17.22c.485-.252 15.921-7.13 28.505-15.863 17.783-12.341 28.561-23.812 32.036-34.095 4.978-14.735 1.426-28.853-2.009-42.506-2.069-8.224-4.023-15.992-4.023-23.494-.001-15.358 7.968-21.056 8.889-21.663z" fill="#fdba12"/></g><g><g><path d="m288.295 209.054-22.216-3.228-10.117-20.131v.32 50.472-.083l20.052 10.447-3.795-22.127z" fill="#ff9500"/></g></g></g><g><path d="m188.76 341.08h134.479v39.095h-134.479z" fill="#fe6a16"/></g><g><path d="m255.962 341.08h67.278v39.095h-67.278z" fill="#f24500"/></g></g></svg>